<?xml version="1.0" standalone="no"?><!DOCTYPE svg PUBLIC "-//W3C//DTD SVG 1.1//EN" "http://www.w3.org/Graphics/SVG/1.1/DTD/svg11.dtd"><svg t="1576305658347" class="icon" viewBox="0 0 1024 1024" version="1.1" xmlns="http://www.w3.org/2000/svg" p-id="36284" xmlns:xlink="http://www.w3.org/1999/xlink" width="200" height="200"><defs><style type="text/css"></style></defs><path d="M131.994 494.138c13.18 264.924 235.912 486.656 381.914 486.656 145.97 0 368.7-221.732 381.88-486.656H131.994z" fill="#EAC6BB" p-id="36285"></path><path d="M571.682 844.632a21.12 21.12 0 0 0 4.436-12.992c0-11.774-9.526-21.33-21.298-21.33a21.228 21.228 0 0 0-16.394 7.714c0.344-0.406 0.532-0.624 0.562-0.624-0.094 0.062-6.934 6.246-26.798 6.246-19.862 0-26.702-6.184-26.764-6.246a21.188 21.188 0 0 0-15.866-7.09c-11.742 0-21.298 9.556-21.298 21.33 0 4.904 1.686 9.4 4.466 12.992h-0.032c0.124 0.156 0.25 0.312 0.406 0.5 0.032 0.032 0.032 0.062 0.062 0.094 3.81 4.622 20.082 21.018 59.024 21.018 38.946 0 55.216-16.396 59.024-21.018 0.032-0.032 0.062-0.062 0.062-0.094 0.158-0.186 0.314-0.342 0.408-0.5z m-33.352-26.512c-0.124 0.154-0.25 0.342-0.376 0.498 0.126-0.188 0.252-0.344 0.376-0.498z m-51.874 0.498h-0.032c-0.124-0.156-0.218-0.344-0.376-0.498 0.126 0.154 0.25 0.31 0.408 0.498zM405.664 618.528c0 11.774-9.556 21.33-21.33 21.33s-21.298-9.556-21.298-21.33 9.526-21.298 21.298-21.298 21.33 9.524 21.33 21.298zM618.746 618.528c0 11.774 9.526 21.33 21.298 21.33s21.298-9.556 21.298-21.33-9.526-21.298-21.298-21.298-21.298 9.524-21.298 21.298z" fill="#434A54" p-id="36286"></path><path d="M430.46 576.242v-0.032l-127.856-21.298a21.36 21.36 0 0 0-3.498-0.312c-11.774 0-21.298 9.556-21.298 21.33 0 10.556 7.714 19.33 17.8 20.986v0.032l127.856 21.298v-0.032a21.36 21.36 0 0 0 3.498 0.312 21.284 21.284 0 0 0 21.298-21.298c0-10.586-7.714-19.332-17.8-20.986zM746.602 575.93c0-11.774-9.556-21.33-21.33-21.33-1.188 0-2.342 0.124-3.496 0.312l-127.856 21.298v0.032c-10.09 1.654-17.802 10.4-17.802 20.986 0 11.774 9.556 21.298 21.298 21.298 1.218 0 2.376-0.124 3.498-0.312l0.032 0.032 127.856-21.298-0.032-0.032c10.118-1.656 17.832-10.43 17.832-20.986z" fill="#656D78" p-id="36287"></path><path d="M771.992 71.222c-58.9-22.11-191.626 41.38-240.22 38.382-48.626-2.966-187.538-82.228-233.79-63.552-46.22 18.674-191.222 401.242-191.222 401.242l816.698 43.378s-92.534-397.34-151.466-419.45z" fill="#434A54" p-id="36288"></path><path d="M297.982 88.648c46.25-18.676 185.162 60.586 233.79 63.584 48.594 2.998 181.32-60.492 240.22-38.382 46.876 17.584 115.05 272.732 140.94 376.258l10.528 0.562S830.924 93.33 771.994 71.22c-58.9-22.11-191.626 41.38-240.22 38.382-48.626-2.966-187.538-82.228-233.79-63.552-46.22 18.674-191.222 401.242-191.222 401.242l16.146 0.844c39.13-99.718 138.316-344.622 175.074-359.488z" fill="#FFFFFF" opacity=".2" p-id="36289"></path><path d="M1022.582 530.428C1008.186 552.6 36.524 508.504 4.42 476.336c-32.104-32.198 135.538-110.492 135.538-110.492s168.706 12.68 379.352 23.89c210.676 11.18 383.348 17.52 383.348 17.52s134.352 100.968 119.924 123.174z" fill="#656D78" p-id="36290"></path><path d="M765.684 736.952c-3.498-7.028-10.712-11.868-19.082-11.868-11.774 0-21.33 9.556-21.33 21.298 0 3.404 0.812 6.59 2.25 9.432l-0.032 0.032 35.226 71.298a612.494 612.494 0 0 0 28.73-38.07l-25.762-52.122zM256.478 789.012c-6.09 0-11.586 2.56-15.458 6.684a604.56 604.56 0 0 0 25.608 33.354 21.296 21.296 0 0 0 11.18-18.738c0-11.774-9.558-21.3-21.33-21.3zM295.984 834.732c-7.026 0-13.242 3.436-17.114 8.682a559.594 559.594 0 0 0 28.794 30.45 21.29 21.29 0 0 0 9.65-17.832c0-11.774-9.558-21.3-21.33-21.3z" fill="#DBADA2" p-id="36291"></path></svg>