<?xml version="1.0" standalone="no"?><!DOCTYPE svg PUBLIC "-//W3C//DTD SVG 1.1//EN" "http://www.w3.org/Graphics/SVG/1.1/DTD/svg11.dtd"><svg t="1576305671269" class="icon" viewBox="0 0 1024 1024" version="1.1" xmlns="http://www.w3.org/2000/svg" p-id="36408" xmlns:xlink="http://www.w3.org/1999/xlink" width="200" height="200"><defs><style type="text/css"></style></defs><path d="M785.636 551.668c0 176.606-182.508 390.406-276.698 390.406-94.158 0-276.666-213.8-276.666-390.406 0-176.636 123.888-249.184 276.666-249.184 152.81 0 276.698 72.548 276.698 249.184z" fill="#EAC6BB" p-id="36409"></path><path d="M437.392 643.61c0 11.774-9.556 21.298-21.33 21.298s-21.33-9.526-21.33-21.298c0-11.776 9.556-21.33 21.33-21.33s21.33 9.554 21.33 21.33z" fill="#434A54" p-id="36410"></path><path d="M468.216 624.558l0.032-0.032-85.29-42.628a21.3 21.3 0 0 0-9.526-2.248c-11.774 0-21.33 9.524-21.33 21.298 0 8.37 4.81 15.552 11.804 19.048l-0.032 0.032 85.29 42.628a21.274 21.274 0 0 0 9.526 2.25c11.774 0 21.33-9.526 21.33-21.298 0-8.368-4.81-15.552-11.804-19.05z" fill="#656D78" p-id="36411"></path><path d="M586.61 643.61c0 11.774 9.554 21.298 21.328 21.298 11.776 0 21.332-9.526 21.332-21.298 0-11.776-9.556-21.33-21.332-21.33-11.774 0-21.328 9.554-21.328 21.33z" fill="#434A54" p-id="36412"></path><path d="M671.898 600.95c0-11.776-9.556-21.298-21.332-21.298-3.402 0-6.65 0.812-9.524 2.248l-85.29 42.628 0.032 0.032c-6.996 3.498-11.804 10.682-11.804 19.05 0 11.774 9.554 21.298 21.328 21.298a21.28 21.28 0 0 0 9.528-2.25l85.29-42.628-0.032-0.032c6.996-3.496 11.804-10.68 11.804-19.048z" fill="#656D78" p-id="36413"></path><path d="M317.562 788.484c60.274 88.256 139.316 153.59 191.376 153.59 52.092 0 131.198-65.366 191.47-153.684l-191.47-38.194-191.376 38.288z" fill="#ED5564" p-id="36414"></path><path d="M508.94 792.826l163.958 32.698a604.32 604.32 0 0 0 27.512-37.132l-191.47-38.194-191.376 38.288a593.936 593.936 0 0 0 27.514 37.132l163.862-32.792zM1017.52 365.6c-32.26-32.136-328.258 14.646-505.52 14.646S38.742 333.464 6.48 365.6C-26.592 398.61 63.85 593.078 512 593.078S1050.594 398.61 1017.52 365.6z" fill="#DA4453" p-id="36415"></path><path d="M611.656 82.188c-47.94 9.15-86.696 74.14-99.656 74.14-12.96 0-51.716-64.99-99.654-74.14-60.524-11.524-177.512 361.736-177.512 361.736S361.066 486.646 512 486.646s277.168-42.722 277.168-42.722-116.988-373.26-177.512-361.736z" fill="#ED5564" p-id="36416"></path><path d="M512 444.018c-122.64 0-228.948-28.232-264.518-38.788-7.964 23.766-12.648 38.694-12.648 38.694S361.066 486.646 512 486.646s277.168-42.722 277.168-42.722-4.686-14.928-12.648-38.694c-35.572 10.556-141.88 38.788-264.52 38.788z" fill="#434A54" p-id="36417"></path><path d="M412.346 124.848c47.938 9.12 86.694 74.108 99.654 74.108 12.96 0 51.716-64.99 99.656-74.108 48.406-9.244 132.976 227.854 164.864 323.012 8.21-2.436 12.648-3.936 12.648-3.936S672.18 70.664 611.656 82.188c-47.94 9.15-86.696 74.14-99.656 74.14-12.96 0-51.716-64.99-99.654-74.14-60.524-11.524-177.512 361.736-177.512 361.736s4.434 1.5 12.648 3.936c31.886-95.158 116.456-332.256 164.864-323.012z" fill="#FFFFFF" opacity=".1" p-id="36418"></path></svg>