<?xml version="1.0" standalone="no"?><!DOCTYPE svg PUBLIC "-//W3C//DTD SVG 1.1//EN" "http://www.w3.org/Graphics/SVG/1.1/DTD/svg11.dtd"><svg t="1576305773032" class="icon" viewBox="0 0 1024 1024" version="1.1" xmlns="http://www.w3.org/2000/svg" p-id="37127" xmlns:xlink="http://www.w3.org/1999/xlink" width="200" height="200"><defs><style type="text/css"></style></defs><path d="M786.774 825.116c-0.782-0.752-19.718-18.126-40.156-42.718-28.562-34.28-45.622-65.092-50.75-91.528l59.876-65.248c7.626 39.53 40.782 150.556 59.808 167.994l-28.778 31.5z" fill="#424953" p-id="37128"></path><path d="M831.988 597.34c-2.308 0-4.684-0.404-7-1.186l-101.622-35.344c-11.122-3.876-17-16-13.122-27.156 3.84-11.126 16-17.014 27.122-13.138l101.622 35.326c11.126 3.876 17 16.032 13.126 27.156a21.338 21.338 0 0 1-20.126 14.342zM703.992 1023.982a21.44 21.44 0 0 1-15.126-6.25c-8.308-8.344-8.282-21.844 0.036-30.186 0.906-0.876 44.59-45.562 68.964-115.372 32.25-92.374 17.126-183.806-44.938-271.898-6.782-9.624-4.5-22.938 5.156-29.718 9.626-6.782 22.938-4.5 29.718 5.158 38.782 55.03 61.5 112.59 67.438 171.088 4.808 46.998-1.156 94.496-17.688 141.15-28 78.81-76.438 127.746-78.5 129.778a21.136 21.136 0 0 1-15.06 6.25z" fill="#646C77" p-id="37129"></path><path d="M875.738 207.978c-17.906-106.45-63.34-192.992-65.25-196.618a21.344 21.344 0 0 0-18.872-11.344c-11.75 0-21.312 9.546-21.312 21.326 0 3.61 0.876 7 2.468 9.984 0.032 0.016 0.032 0.062 0.062 0.126 0.032 0.032 0.032 0.062 0.062 0.094 0.532 1.016 2.968 5.75 6.594 13.546-6.812 3.546-11.5 10.688-11.5 18.922 0 11.782 9.562 21.326 21.312 21.326 2.468 0 4.812-0.422 7-1.188 0.402 1.032 0.812 2.078 1.218 3.126-7.344 3.376-12.468 10.782-12.468 19.406 0 11.782 9.532 21.326 21.312 21.326 1.876 0 3.688-0.266 5.438-0.716 7.902 24.388 15.434 52.03 20.684 81.184-14.684-9.562-24.122-26.154-24.372-26.562a21.316 21.316 0 0 0-18.812-11.232c-11.75 0-21.312 9.546-21.312 21.328 0 3.626 0.906 7.03 2.5 10.014 0 0 0 0.046 0.032 0.062l0.094 0.172c2.126 3.938 26 46.202 68.25 54.216 8.782 108.09-25.032 187.932-100.812 237.696l23.406 35.656c99.216-65.138 138.716-176.432 114.278-321.85z" fill="#646C77" p-id="37130"></path><path d="M237.228 825.116l-28.796-31.5 14.39 15.75 7.5-65.06c19.062-17.5 30.328-79.278 37.952-118.684l59.858 65.248c-5.126 26.436-22.188 57.248-50.732 91.528-20.454 24.592-39.376 41.966-40.172 42.718z" fill="#424953" p-id="37131"></path><path d="M192.01 597.34c-8.828 0-17.092-5.532-20.156-14.342-3.86-11.126 2.016-23.282 13.156-27.156l101.606-35.326c11.126-3.876 23.296 2.014 27.156 13.138a21.32 21.32 0 0 1-13.14 27.156l-101.622 35.344a21.85 21.85 0 0 1-7 1.186zM319.992 1023.982a21.146 21.146 0 0 1-15.062-6.25c-2.046-2.032-50.498-50.966-78.466-129.778-16.562-46.654-22.514-94.152-17.718-141.15 5.97-58.498 28.656-116.058 67.436-171.088 6.796-9.658 20.11-11.94 29.734-5.158 9.624 6.782 11.936 20.096 5.156 29.718-62.06 88.092-77.168 179.526-44.936 271.898 24.514 70.184 68.53 114.964 68.966 115.402 8.296 8.344 8.296 21.842-0.03 30.154a21.32 21.32 0 0 1-15.08 6.252z" fill="#646C77" p-id="37132"></path><path d="M185.12 256.476c42.264-8.016 66.124-50.28 68.264-54.216l0.094-0.172c0.016-0.016 0.016-0.046 0.016-0.046l0.014-0.016a21.176 21.176 0 0 0 2.5-10.014c0-11.782-9.546-21.328-21.328-21.328-8.14 0-15.202 4.546-18.796 11.232-0.234 0.408-9.67 17-24.39 26.562 5.282-29.154 12.782-56.794 20.704-81.184 1.734 0.452 3.546 0.716 5.436 0.716 11.782 0 21.328-9.544 21.328-21.326 0-8.626-5.126-16.032-12.484-19.406 0.406-1.046 0.812-2.094 1.218-3.126 2.188 0.766 4.532 1.188 6.984 1.188 11.782 0 21.328-9.544 21.328-21.326 0-8.234-4.672-15.376-11.514-18.922 3.656-7.796 6.078-12.532 6.61-13.546 0.016-0.032 0.03-0.062 0.062-0.094 0.032-0.062 0.046-0.11 0.064-0.126h-0.016a21.288 21.288 0 0 0 2.484-9.984c0-11.78-9.546-21.326-21.328-21.326a21.308 21.308 0 0 0-18.844 11.344c-1.936 3.626-47.356 90.168-65.262 196.618-24.438 145.418 15.062 256.71 114.262 321.85l23.42-35.656c-75.78-49.764-109.59-129.606-100.826-237.696z" fill="#646C77" p-id="37133"></path><path d="M653.278 85.842c-5.468-20.406-17.218-34.31-18.532-35.826v0.016c-3.938-4.5-9.656-7.344-16.062-7.344-11.812 0-21.376 9.546-21.376 21.328 0 5.36 2 10.25 5.25 13.982v0.016c0.066 0.078 6.628 8.062 9.5 18.844 3.688 13.812-0.188 25.61-12.152 37.094l29.528 30.794c23.062-22.11 31.53-50.122 23.844-78.904zM405.332 42.688a21.226 21.226 0 0 0-16.078 7.344l-0.016-0.016c-1.312 1.516-13.062 15.42-18.514 35.826-7.688 28.782 0.78 56.794 23.858 78.904l29.514-30.794c-11.672-11.206-15.626-22.64-12.422-36 2.734-11.484 9.796-19.984 9.874-20.062l-0.126 0.126-0.016-0.016a21.176 21.176 0 0 0 5.266-13.982c0.002-11.784-9.558-21.33-21.34-21.33z" fill="#424953" p-id="37134"></path><path d="M639.996 213.338c0 70.702-57.308 127.996-127.996 127.996-70.7 0-127.996-57.294-127.996-127.996 0-70.686 57.294-127.996 127.996-127.996 70.688 0 127.996 57.31 127.996 127.996z" fill="#646C77" p-id="37135"></path><path d="M793.68 451.736c0 184.104-126.122 444.47-281.68 444.47-155.556 0-281.678-260.368-281.678-444.47S356.444 192.462 512 192.462c155.558 0 281.68 75.17 281.68 259.274z" fill="#EC5564" p-id="37136"></path><path d="M783.554 368.442c-122.84 4.89-236.992 58.876-271.554 76.716-34.592-17.842-148.712-71.826-271.552-76.716-3.532 13.328-6.188 27.454-7.89 42.454 113.418 2.828 223.79 53.982 258.116 71.342V894.58c7.032 1.094 14.156 1.626 21.328 1.626 7.172 0 14.282-0.534 21.328-1.626V482.236c34.328-17.36 144.7-68.514 258.098-71.342a297.766 297.766 0 0 0-7.874-42.452z" fill="#D94452" p-id="37137"></path></svg>